<svg xmlns="http://www.w3.org/2000/svg" viewBox="0 0 128 128">
  <defs>
    <linearGradient id="g" x1="0" x2="1" y1="0" y2="1">
      <stop offset="0" stop-color="#f8c24a"/>
      <stop offset="1" stop-color="#f2a900"/>
    </linearGradient>
  </defs>
  <circle cx="64" cy="64" r="62" fill="#3b1448" stroke="url(#g)" stroke-width="4"/>
  <g transform="translate(8,8)">
    <path d="M56 90C56 70 80 62 80 44C80 30 70 20 56 20C44 20 32 30 32 44C32 62 56 70 56 90Z" fill="url(#g)"/>
    <circle cx="56" cy="18" r="6" fill="#fff" fill-opacity=".9"/>
  </g>
  <text x="64" y="118" font-family="Montserrat,Arial,Helvetica,sans-serif" font-size="12" text-anchor="middle" fill="#fff">Tu Logo</text>
  <g fill="#fff" fill-opacity=".75">
    <circle cx="20" cy="22" r="2"/>
    <circle cx="100" cy="18" r="1.8"/>
    <circle cx="96" cy="40" r="1.4"/>
    <circle cx="24" cy="100" r="1.6"/>
  </g>
  <path d="M20 22L40 26L64 18L96 40" stroke="#f8d890" stroke-opacity=".8"/>
</svg>

